# xmcd
#
# Track frame offsets: 
#        150
#        12890
#        24197
#        36352
#        52197
#        63304
#        74382
#        87833
#        100666
#        113977
#        125272
#        137175
#        149668
#        163254
#        178869
#        190786
#        204306
#        216942
#        230455
#        241509
#        252271
#        265980
#        279975
#        292211
#        305683
#
# Disc length: 4252 seconds
#
# Revision: 1
# Processed by: cddbd v1.5.2PL0 Copyright (c) Steve Scherf et al.
# Submitted via: ExactAudioCopy v0.90b4
#
DISCID=79109a19
DTITLE=Various Artist - West Coast Down Home Blues
DYEAR=1999
DGENRE=Blues
TTITLE0=Sonny Boy Johnson - Come And Go With Me
TTITLE1=Mac Willis - Howling Woman
TTITLE2=Black Diamond - T P Railer
TTITLE3=R. Green and Turner - Central Avenue Blues
TTITLE4=John Hogg - Black Snake Blues
TTITLE5=Beverley Scott - Brown Skin Woman
TTITLE6=Jimmy McCracklin - Street Loafin' Woman
TTITLE7=Slim Green - Baby I Love You
TTITLE8=Ernest McClay - Big Time Woman
TTITLE9=Goldrush - All My Money
TTITLE10=Sonny Boy Johnson - Swimming Pool Blues
TTITLE11=Mercy Dee - Ba-Ba-Du-Lay Fever
TTITLE12=James Tisdom - Winehead Swing
TTITLE13=R. Green and Turner - Alla Blues
TTITLE14=Smokey Hogg - Penitentiary Blues (Pt. 1)
TTITLE15=Big Son Tillis - When I Come In This House
TTITLE16=Ernest McClay - Night Working Woman
TTITLE17=Mac Willis - Pretty Woman
TTITLE18=Black Diamond - Lonesome Blues
TTITLE19=Jimmy McCracklin - Highway 101
TTITLE20=James Tisdom - Throw This Dog A Woman
TTITLE21=Slim Green - Tricky Woman Blues
TTITLE22=Mercy Dee - Evil And Hanky
TTITLE23=Beverley Scott - Little Girl Blues
TTITLE24=Sonny Boy Johnson - Desert Blues
EXTD=
EXTT0=
EXTT1=
EXTT2=
EXTT3=
EXTT4=
EXTT5=
EXTT6=
EXTT7=
EXTT8=
EXTT9=
EXTT10=
EXTT11=
EXTT12=
EXTT13=
EXTT14=
EXTT15=
EXTT16=
EXTT17=
EXTT18=
EXTT19=
EXTT20=
EXTT21=
EXTT22=
EXTT23=
EXTT24=
PLAYORDER=
